<?xml version="1.0" encoding="utf-8"?>
<!-- Generator: Adobe Illustrator 17.1.0, SVG Export Plug-In . SVG Version: 6.00 Build 0)  -->
<!DOCTYPE svg PUBLIC "-//W3C//DTD SVG 1.1//EN" "http://www.w3.org/Graphics/SVG/1.1/DTD/svg11.dtd">
<svg version="1.1" id="Layer_1" xmlns="http://www.w3.org/2000/svg" xmlns:xlink="http://www.w3.org/1999/xlink" x="0px" y="0px"
	 viewBox="0 0 531.7 212" enable-background="new 0 0 531.7 212" xml:space="preserve">
<g>
	<g>
		<path fill="#353529" d="M150.4,30.2h28.8v36.7V79c5.2-8.7,14.9-12.2,25.3-12.2c14.8,0,23.5,5.2,28.7,13.8
			c5.2,8.4,6.6,19.8,6.6,32.2v53.9h-28.9v-52.5c0-5.4-0.7-10.5-3-14.1c-2.5-3.6-6.2-6.1-12.5-6.1c-8,0-12.2,3.6-14.1,7.9
			c-2.1,4.1-2.1,8.9-2.1,11.3v53.5h-28.9V30.2H150.4z"/>
		<path fill="#353529" d="M276.1,128.4c1.2,10.3,11,17.1,22.3,17.1c9.2,0,14.1-4,17.6-9h29.5c-4.7,10.8-11.5,19.2-19.7,24.6
			c-8,5.7-17.6,8.7-27.4,8.7c-27.6,0-51.1-22.5-51.1-51.1c0-26.9,21.2-51.8,50.6-51.8c14.8,0,27.4,5.7,36.5,15.3
			c12.2,13,15.8,28.5,13.6,46.3h-71.9V128.4z M319.6,106.5c-0.7-4.6-6.6-15.3-21.5-15.3s-20.9,10.8-21.5,15.3H319.6z"/>
		<path fill="#353529" d="M356.9,70.1H384v10.8c2.8-5.2,7.9-14.1,24.5-14.1v29h-1c-14.8,0-21.7,5.4-21.7,18.9v51.8h-28.9L356.9,70.1
			z"/>
		<path fill="#353529" d="M515.6,166.6h-27.4v-10.5c-2.8,4-9.7,13.6-29.2,13.6c-29.2,0-48.4-22.6-48.4-51.7
			c0-32.7,23.3-51.3,47.8-51.3c17.1,0,25.3,8.4,28.4,11.5V67.8V30.2h28.9v136.5H515.6z M439.4,118.2c0,14.8,10.6,24.6,24.1,24.6
			c6.9,0,13.4-2.8,17.9-7.4c4.6-4.6,7.1-10.8,6.8-17.9c0-6.9-2.8-12.8-7.1-17.1c-4.3-4.3-10.5-6.8-17.2-6.8
			c-16.7,0-24.5,13-24.5,24.1L439.4,118.2z"/>
	</g>
	<g>
		<g>
			<path fill="#353529" d="M131.5,51c-1.4-9.9-3.9-16.7-7.6-20.8c-2.7-3.1-6.2-4.7-10-4.7c-0.4,0-0.8,0-1.2,0.1l0.1-0.1l-0.3,0.1
				c-0.3,0-1.3-0.1-2.5-0.7l-9.2-4.6l0.3,5.8c-1.2-0.4-2.5-0.6-3.8-0.6c-0.4,0-0.8,0-1.2,0.1l0.1-0.1L96,25.6
				c-0.3,0-1.3-0.1-2.5-0.7l-9.2-4.6l2.2,48.9c-15,3.2-29.6,16.7-43.5,40.2c-6.1,10.2-10.8,20.3-14,27.7c-0.6,1-1.3,2.1-2,3.3
				c-4.6,7.5-11,17.8-11,28.7c0,7.2,3.1,13.2,9,17.3c4.8,3.4,11.1,5.2,17.9,5.2c4.1,0,8.2-1,13.3-2.6c13.3-3.5,24.8-7.9,34.5-12.6
				c10-4.8,18.2-10.4,24.5-16.5c10.6-10.4,15.9-22.8,15.9-36.9v-12.8c0.2-2.4,1.7-16.8,1.8-33C133,67,132.5,58.2,131.5,51z"/>
			<path fill="#787060" d="M93.6,68.5h0.2l9.3,0.6L101.5,33c-1.4-1-3-1.5-4.8-1.4c0,0-2.5,0.3-5.8-1.3l1.7,38.3
				C92.9,68.5,93.3,68.5,93.6,68.5z"/>
			<path fill="#625C4D" d="M101.1,66.3c0,0.9,0.1,1.7,0.1,2.6l1.9,0.1l-1.6-36.1c-1.4-1-3-1.5-4.8-1.3c0,0-2.5,0.3-5.8-1.3l0.7,16.6
				C99.6,47,100.7,55.6,101.1,66.3z"/>
			<path fill="#897E66" d="M113.2,31.6c0,0-2.5,0.3-5.8-1.3l2,45.2c0,0,9.1,4,10.7,20.5c-18.6,48.7-45.7,64.5-57,69.2
				c0.8,6.6,0.5,11.7-1.1,15.7c52.2-15.4,63.1-38.5,63.1-57.8c0-2.1,0-2.8,0-2.7V110C125.1,110,133.8,29.8,113.2,31.6z"/>
			<g>
				<path fill="#8C8169" d="M63.5,169.9c0,0.1,0,0.2,0,0.3C63.5,170.1,63.5,170,63.5,169.9z"/>
				<path fill="#8C8169" d="M63.6,172c0,0.1,0,0.3,0,0.4C63.6,172.3,63.6,172.1,63.6,172z"/>
				<path fill="#8C8169" d="M63.2,165.6c0-0.1,0-0.3,0-0.4c11.3-4.7,38.5-20.5,57-69.2c-1.6-16.5-10.7-20.5-10.7-20.5l0,0l-15.8-1
					c-24.9,0-45.2,35.1-55.7,57.6c6.9,0,13.3,7.7,16.4,12.3c4.6,6.7,8,14.6,8.8,20.6C63.1,165.2,63.1,165.4,63.2,165.6z"/>
				<path fill="#8C8169" d="M63.4,167.6c0,0.1,0,0.2,0,0.4C63.4,167.8,63.4,167.7,63.4,167.6z"/>
				<path fill="#8C8169" d="M62.7,178.6c0.1-0.3,0.2-0.6,0.2-0.9C62.9,178,62.8,178.3,62.7,178.6z"/>
				<path fill="#8C8169" d="M62,180.9c0.2-0.5,0.4-1,0.5-1.6C62.4,179.9,62.2,180.4,62,180.9z"/>
				<path fill="#8C8169" d="M63.4,174.5c0-0.2,0-0.3,0-0.5C63.5,174.2,63.4,174.3,63.4,174.5z"/>
				<path fill="#8C8169" d="M63.2,176.5c0-0.2,0.1-0.4,0.1-0.6C63.3,176.1,63.2,176.3,63.2,176.5z"/>
			</g>
			<path fill="#978870" d="M99.8,86.2c8.2-2.2,17.7-1.1,20.3,9.8c-1.6-16.5-10.7-20.5-10.7-20.5l0,0l-15.8-1
				c-24.9,0-45.2,35.1-55.7,57.6c6.1,0,11.7,5.9,15.1,10.5c4.5-6.1,15.3-14.5,21.4-30.8C77.7,103.1,85.5,90,99.8,86.2z"/>
			<path fill="#DFDFCF" d="M57.6,165.7c2.1,16.3-4,19.9-14.7,19.9S22,180.2,22,169.1c0-11.1,8.5-22.6,12.4-29.3
				C39.8,130.5,55.9,152.5,57.6,165.7z"/>
			<path fill="#D5D3B8" d="M57.9,168.2l-23.8,16.1c2.7,0.9,5.7,1.3,8.8,1.3C53.1,185.7,59.1,182.4,57.9,168.2z"/>
			<path fill="#766750" d="M126.6,64c-0.9-17.5-4.2-33.2-13.4-32.4c0,0-2.5,0.3-5.8-1.3l0.7,16.6l0,0c7.9,0.1,9.1,8.7,9.5,19.4
				c0.4,10,2.2,29,2.5,29.6C121.2,80.5,124.2,70.2,126.6,64z"/>
			<g>
				
					<ellipse transform="matrix(0.6462 -0.7632 0.7632 0.6462 -56.9556 102.6402)" fill="#D5D3B8" cx="82.2" cy="112.7" rx="15.6" ry="13.1"/>
				
					<ellipse transform="matrix(0.6462 -0.7632 0.7632 0.6462 -56.9556 102.6402)" fill="#353529" cx="82.2" cy="112.7" rx="10.7" ry="9"/>
				
					<ellipse transform="matrix(0.6462 -0.7632 0.7632 0.6462 -55.815 99.6627)" fill="#FFFFFF" cx="79.6" cy="110" rx="4.5" ry="1.8"/>
			</g>
		</g>
		<path fill="#353529" d="M39.3,160.4c-0.3-0.3-0.7-0.5-1.1-0.6c-0.1,1.2-0.7,2.6-1.8,3.7c-1.1,1.1-2.4,1.7-3.7,1.8
			c0.1,0.4,0.3,0.8,0.6,1.1c1.2,1.2,3.7,1,5.3-0.6C40.3,164.1,40.5,161.7,39.3,160.4z"/>
	</g>
</g>
</svg>
