<?xml version="1.0" encoding="utf-8"?>
<!-- Generator: Adobe Illustrator 17.1.0, SVG Export Plug-In . SVG Version: 6.00 Build 0)  -->
<!DOCTYPE svg PUBLIC "-//W3C//DTD SVG 1.1//EN" "http://www.w3.org/Graphics/SVG/1.1/DTD/svg11.dtd">
<svg version="1.1" id="Layer_1" xmlns="http://www.w3.org/2000/svg" xmlns:xlink="http://www.w3.org/1999/xlink" x="0px" y="0px"
	 viewBox="-512.3 -102.3 544 214.7" enable-background="new -512.3 -102.3 544 214.7" xml:space="preserve">
<g>
	<g>
		<path fill="#353529" d="M-374.7-50c-1.4-9.9-3.9-16.7-7.6-20.8c-2.7-3.1-6.2-4.7-10-4.7c-0.4,0-0.8,0-1.2,0.1l0.1-0.1l-0.3,0.1
			c-0.3,0-1.3-0.1-2.5-0.7l-9.2-4.6l0.3,5.8c-1.2-0.4-2.5-0.6-3.8-0.6c-0.4,0-0.8,0-1.2,0.1l0.1-0.1l-0.3,0.1
			c-0.3,0-1.3-0.1-2.5-0.7l-9.2-4.6l2.2,48.9c-15,3.2-29.6,16.7-43.5,40.2c-6.1,10.2-10.8,20.3-14,27.7c-0.6,1-1.3,2.1-2,3.3
			c-4.6,7.5-11,17.8-11,28.7c0,7.2,3.1,13.2,9,17.3c4.8,3.4,11.1,5.2,17.9,5.2c4.1,0,8.2-1,13.3-2.6c13.3-3.5,24.8-7.9,34.5-12.6
			c10-4.8,18.2-10.4,24.5-16.5c10.6-10.4,15.9-22.8,15.9-36.9V9.3c0.2-2.4,1.7-16.8,1.8-33C-373.2-34-373.7-42.8-374.7-50z"/>
		<path fill="#787060" d="M-412.5-32.5h0.2l9.3,0.6l-1.6-36.1c-1.4-1-3-1.5-4.8-1.4c0,0-2.5,0.3-5.8-1.3l1.7,38.3
			C-413.3-32.5-412.9-32.5-412.5-32.5z"/>
		<path fill="#625C4D" d="M-405.1-34.7c0,0.9,0.1,1.7,0.1,2.6l1.9,0.1l-1.6-36.1c-1.4-1-3-1.5-4.8-1.3c0,0-2.5,0.3-5.8-1.3l0.7,16.6
			C-406.6-54-405.4-45.4-405.1-34.7z"/>
		<path fill="#353529" d="M-463.3,87.7c-6.2,0-12-1.7-16.2-4.7c-5-3.6-7.7-8.7-7.7-14.9c0-10,6.1-19.9,10.6-27.1
			c0.8-1.4,1.6-2.6,2.3-3.8c1.4-2.4,3.5-3.7,6-3.7c5.8,0,11.5,7,14.4,11.2c4.4,6.4,7.6,13.9,8.3,19.5c1.1,8.8,0.1,14.6-3.3,18.4
			C-452.6,87.1-458.5,87.7-463.3,87.7z"/>
		<path fill="#897E66" d="M-393-69.4c0,0-2.5,0.3-5.8-1.3l2,45.2c0,0,9.1,4,10.7,20.5c-18.6,48.7-45.7,64.5-57,69.2
			c0.8,6.6,0.5,11.7-1.1,15.7c52.2-15.4,63.1-38.5,63.1-57.8c0-2.1,0-2.8,0-2.7V9C-381.1,9-372.4-71.2-393-69.4z"/>
		<g>
			<path fill="#8C8169" d="M-442.7,68.9c0,0.1,0,0.2,0,0.3C-442.7,69.1-442.7,69-442.7,68.9z"/>
			<path fill="#8C8169" d="M-442.6,71c0,0.1,0,0.3,0,0.4C-442.6,71.3-442.6,71.1-442.6,71z"/>
			<path fill="#8C8169" d="M-443,64.6c0-0.1,0-0.3,0-0.4c11.3-4.7,38.5-20.5,57-69.2c-1.6-16.5-10.7-20.5-10.7-20.5l0,0l-15.8-1
				c-24.9,0-45.2,35.1-55.7,57.6c6.9,0,13.3,7.7,16.4,12.3c4.6,6.7,8,14.6,8.8,20.6C-443.1,64.2-443,64.4-443,64.6z"/>
			<path fill="#8C8169" d="M-442.8,66.6c0,0.1,0,0.2,0,0.4C-442.8,66.8-442.8,66.7-442.8,66.6z"/>
			<path fill="#8C8169" d="M-443.4,77.6c0.1-0.3,0.2-0.6,0.2-0.9C-443.3,77-443.4,77.3-443.4,77.6z"/>
			<path fill="#8C8169" d="M-444.2,79.9c0.2-0.5,0.4-1,0.5-1.6C-443.8,78.9-444,79.4-444.2,79.9z"/>
			<path fill="#8C8169" d="M-442.8,73.5c0-0.2,0-0.3,0-0.5C-442.7,73.2-442.7,73.3-442.8,73.5z"/>
			<path fill="#8C8169" d="M-443,75.5c0-0.2,0.1-0.4,0.1-0.6C-442.9,75.1-443,75.3-443,75.5z"/>
		</g>
		<path fill="#978870" d="M-406.4-14.8c8.2-2.2,17.7-1.1,20.3,9.8c-1.6-16.5-10.7-20.5-10.7-20.5l0,0l-15.8-1
			c-24.9,0-45.2,35.1-55.7,57.6c6.1,0,11.7,5.9,15.1,10.5c4.5-6.1,15.3-14.5,21.4-30.8C-428.5,2.1-420.7-11-406.4-14.8z"/>
		<path fill="#DFDFCF" d="M-448.5,64.7c2.1,16.3-4,19.9-14.7,19.9s-20.9-5.5-20.9-16.5s8.5-22.6,12.4-29.3
			C-466.4,29.5-450.3,51.5-448.5,64.7z"/>
		<path fill="#D5D3B8" d="M-448.3,67.2L-472,83.4c2.7,0.9,5.7,1.3,8.8,1.3C-453.1,84.7-447.1,81.4-448.3,67.2z"/>
		<path fill="#766750" d="M-379.5-37c-0.9-17.5-4.2-33.2-13.4-32.4c0,0-2.5,0.3-5.8-1.3l0.7,16.6l0,0c7.9,0.1,9.1,8.7,9.5,19.4
			c0.4,10,2.2,29,2.5,29.6C-385-20.5-382-30.8-379.5-37z"/>
		<g>
			
				<ellipse transform="matrix(0.6462 -0.7632 0.7632 0.6462 -158.9669 -319.4009)" fill="#D5D3B8" cx="-424" cy="11.7" rx="15.6" ry="13.1"/>
			
				<ellipse transform="matrix(0.6462 -0.7632 0.7632 0.6462 -158.9669 -319.4009)" fill="#353529" cx="-424" cy="11.7" rx="10.7" ry="9"/>
			
				<ellipse transform="matrix(0.6462 -0.7632 0.7632 0.6462 -157.8263 -322.3784)" fill="#FFFFFF" cx="-426.6" cy="9" rx="4.5" ry="1.8"/>
		</g>
	</g>
	<g>
		<path fill="#353529" d="M-355.8-70.8h28.8v36.7V-22c5.2-8.7,14.9-12.2,25.3-12.2c14.8,0,23.5,5.2,28.7,13.8
			c5.2,8.4,6.6,19.8,6.6,32.2v53.9h-28.9V13.2c0-5.4-0.7-10.5-3-14.1c-2.5-3.6-6.2-6.1-12.5-6.1c-8,0-12.2,3.6-14.1,7.9
			c-2.1,4.1-2.1,8.9-2.1,11.3v53.5h-28.9V-70.8H-355.8z"/>
		<path fill="#353529" d="M-230.1,27.4c1.2,10.3,11,17.1,22.3,17.1c9.2,0,14.1-4,17.6-9h29.5c-4.7,10.8-11.5,19.2-19.7,24.6
			c-8,5.7-17.6,8.7-27.4,8.7c-27.6,0-51.1-22.5-51.1-51.1c0-26.9,21.2-51.8,50.6-51.8c14.8,0,27.4,5.7,36.6,15.3
			c12.2,13,15.8,28.5,13.6,46.3h-71.9V27.4z M-186.6,5.5c-0.7-4.6-6.6-15.3-21.5-15.3S-229,0.9-229.7,5.5H-186.6z"/>
		<path fill="#353529" d="M-149.3-30.9h27.1v10.8c2.8-5.2,7.9-14.1,24.5-14.1v29h-1c-14.8,0-21.7,5.4-21.7,18.9v51.8h-28.9
			C-149.3,65.5-149.3-30.9-149.3-30.9z"/>
		<path fill="#353529" d="M9.4,65.6H-18V55.2c-2.8,4-9.7,13.6-29.2,13.6c-29.2,0-48.4-22.6-48.4-51.7c0-32.7,23.3-51.3,47.8-51.3
			c17.1,0,25.3,8.4,28.4,11.5v-10.5v-37.7H9.5V65.6H9.4z M-66.8,17.2c0,14.8,10.6,24.6,24.1,24.6c6.9,0,13.4-2.8,17.9-7.4
			c4.6-4.6,7.1-10.8,6.8-17.9c0-6.9-2.8-12.8-7.1-17.1c-4.3-4.3-10.5-6.8-17.2-6.8c-16.7,0-24.5,13-24.5,24.1
			C-66.8,16.8-66.8,17.2-66.8,17.2z"/>
	</g>
</g>
</svg>
